<svg xmlns="http://www.w3.org/2000/svg" width="103.1" height="98.8" viewBox="0 0 103.1 98.8"><g transform="translate(-137.4 -8072.7)"><path d="M-16,1.5H-63A7.6,7.6,0,0,1-68.38-.7,7.409,7.409,0,0,1-70.6-6V-32.8a7.7,7.7,0,0,1,2.189-5.511A7.7,7.7,0,0,1-62.9-40.5h33.7a7.409,7.409,0,0,1,5.3,2.22,7.6,7.6,0,0,1,2.2,5.38,7.508,7.508,0,0,1-7.5,7.5H-55.5v11.8H-16a7.409,7.409,0,0,1,5.3,2.22A7.6,7.6,0,0,1-8.5-6,7.508,7.508,0,0,1-16,1.5Zm-46.9-39a4.5,4.5,0,0,0-4.7,4.7V-6A4.556,4.556,0,0,0-63-1.5h47A4.505,4.505,0,0,0-11.5-6,4.556,4.556,0,0,0-16-10.6H-58.5V-28.4h29.3a4.505,4.505,0,0,0,4.5-4.5,4.556,4.556,0,0,0-4.5-4.6ZM-16-59.2H-62.9a7.746,7.746,0,0,1-5.5-2.171A7.55,7.55,0,0,1-70.6-66.8a7.409,7.409,0,0,1,2.22-5.3A7.6,7.6,0,0,1-63-74.3h47a7.508,7.508,0,0,1,7.5,7.5,7.6,7.6,0,0,1-2.2,5.38A7.409,7.409,0,0,1-16-59.2ZM-63-71.3a4.556,4.556,0,0,0-4.6,4.5,4.45,4.45,0,0,0,4.7,4.6H-16a4.556,4.556,0,0,0,4.5-4.6A4.505,4.505,0,0,0-16-71.3Z" transform="translate(208 8147)"/><path d="M-63.6,1.5A7.509,7.509,0,0,1-71.1-6V-32.9a7.664,7.664,0,0,1,2.027-5.573A7.664,7.664,0,0,1-63.5-40.5h31.9c5.009,0,8-3.551,8-9.5,0-5.761-2.991-9.2-8-9.2H-63.5a7.664,7.664,0,0,1-5.573-2.027A7.664,7.664,0,0,1-71.1-66.8a7.509,7.509,0,0,1,7.5-7.5h32a23.815,23.815,0,0,1,8.507,1.551,22.19,22.19,0,0,1,7.412,4.635,22.048,22.048,0,0,1,5.225,7.651A27.277,27.277,0,0,1-8.5-50a25.491,25.491,0,0,1-4.293,14.856,22.4,22.4,0,0,1-8.447,7.253l9.571,18.4a7.421,7.421,0,0,1,.447,5.727,7.485,7.485,0,0,1-3.689,4.4,7.668,7.668,0,0,1-3.508.854,7.532,7.532,0,0,1-6.714-4.1L-36.913-25.4H-56V-6A7.409,7.409,0,0,1-58.22-.7,7.6,7.6,0,0,1-63.6,1.5Zm.1-39a4.71,4.71,0,0,0-3.452,1.148A4.71,4.71,0,0,0-68.1-32.9V-6a4.505,4.505,0,0,0,4.5,4.5A4.556,4.556,0,0,0-59-6V-28.4h23.913L-22.468-3.989a4.486,4.486,0,0,0,4.049,2.475,4.655,4.655,0,0,0,2.129-.519,4.576,4.576,0,0,0,1.957-6.079L-25.386-29.359l1.512-.626C-20.154-31.527-11.5-36.563-11.5-50c0-14.635-10.419-21.3-20.1-21.3h-32a4.505,4.505,0,0,0-4.5,4.5,4.71,4.71,0,0,0,1.148,3.452A4.71,4.71,0,0,0-63.5-62.2h31.9a11.61,11.61,0,0,1,4.221.761A9.929,9.929,0,0,1-23.824-59.1,12.718,12.718,0,0,1-20.6-50a13.326,13.326,0,0,1-3.121,9.215,9.858,9.858,0,0,1-3.548,2.467A11.363,11.363,0,0,1-31.6-37.5Z" transform="translate(249 8170)"/></g></svg>